PathFileType	4	(X/Y/Z)	walk-thru1-4-TP.trc
DataRate	CameraRate	NumFrames	NumMarkers	Units	OrigDataRate	OrigDataStartFrame	OrigNumFrames
120.00	120.00	       4	60	mm	120.00	125	       497
Frame#	Time	Top.Head			Front.Head			Rear.Head			Jaw			C7			R.Clavicle			L.Clavicle			R.Shoulder			L.Shoulder			R.Scapula			L.Scapula			R.Scap.Inf			R.Biceps.Lateral			R.Elbow			R.Elbow.Medial			R.Forearm			R.Ulna			R.Radius			R.Wrist			R.Thumb.M1			R.Thumb.M2			R.Thumb.M3			R.Finger3.M1			R.Finger3.M2			R.Finger3.M3			L.Biceps.Lateral			L.Elbow			L.Elbow.Medial			L.Forearm			L.Ulna			L.Radius			L.Wrist			L.Thumb.M1			L.Thumb.M2			L.Thumb.M3			L.Finger3.M1			L.Finger3.M2			L.Finger3.M3			V.Sacral			R.ASIS			L.ASIS			R.Thigh			R.Thigh.Front			R.Knee			R.Knee.Medial			R.Shank			R.Ankle			R.Ankle.Medial			R.Heel			R.Toe			R.MedFoot			L.Thigh			L.Knee			L.Knee.Medial			L.Shank			L.Ankle			L.Ankle.Medial			L.Heel			L.Toe			L.MedFoot			V_mid_ASIS			V_R_Knee_JC			V_L_Knee_JC			V_R_Elbow_JC			V_L_Elbow_JC			V_R_Ankle_JC			V_L_Ankle_JC			V_R_Wrist_JC			V_L_Wrist_JC			V_R_ScaTrpz_1stMC_JC			V_R_1stMC_1stPP_JC			V_R_1stPP_1stDP_JC			V_R_LunCap_3rdMC_JC			V_R_3rdMC_3rdPP_JC			V_R_3rdPP_3rdMP_JC			V_R_3rdMP_3rdDP_JC			V_L_ScaTrpz_1stMC_JC			V_L_1stMC_1stPP_JC			V_L_1stPP_1stDP_JC			V_L_LunCap_3rdMC_JC			V_L_3rdMC_3rdPP_JC			V_L_3rdPP_3rdMP_JC			V_L_3rdMP_3rdPP_JC			V_ROOT_JC			V_R_Hip_JC			V_L_Hip_JC			V_R_GlenHum_JC			V_L_GlenHum_JC			V_ForeHead_Ctr			V_Vertex			V_Sagit_Lambdoid_Suture			V_R_FrontoTemp			V_L_FrontoTemporal			V_R_ParietalOccip			V_L_ParietalOcciptal			V_R_Temporal			V_L_Temporal			V_mid_FrontRearHead			V_mid_RLGlenHumCtrs			V_C7_vert			V_C1_vert			V_Mid_Hip			
		X1	Y1	Z1	X2	Y2	Z2	X3	Y3	Z3	X4	Y4	Z4	X5	Y5	Z5	X6	Y6	Z6	X7	Y7	Z7	X8	Y8	Z8	X9	Y9	Z9	X10	Y10	Z10	X11	Y11	Z11	X12	Y12	Z12	X13	Y13	Z13	X14	Y14	Z14	X15	Y15	Z15	X16	Y16	Z16	X17	Y17	Z17	X18	Y18	Z18	X19	Y19	Z19	X20	Y20	Z20	X21	Y21	Z21	X22	Y22	Z22	X23	Y23	Z23	X24	Y24	Z24	X25	Y25	Z25	X26	Y26	Z26	X27	Y27	Z27	X28	Y28	Z28	X29	Y29	Z29	X30	Y30	Z30	X31	Y31	Z31	X32	Y32	Z32	X33	Y33	Z33	X34	Y34	Z34	X35	Y35	Z35	X36	Y36	Z36	X37	Y37	Z37	X38	Y38	Z38	X39	Y39	Z39	X40	Y40	Z40	X41	Y41	Z41	X42	Y42	Z42	X43	Y43	Z43	X44	Y44	Z44	X45	Y45	Z45	X46	Y46	Z46	X47	Y47	Z47	X48	Y48	Z48	X49	Y49	Z49	X50	Y50	Z50	X51	Y51	Z51	X52	Y52	Z52	X53	Y53	Z53	X54	Y54	Z54	X55	Y55	Z55	X56	Y56	Z56	X57	Y57	Z57	X58	Y58	Z58	X59	Y59	Z59	X60	Y60	Z60	

125	1.033	-28.07912	43.59565	1562.86938	73.40553	39.02340	1463.59338	-139.54343	41.88937	1482.22791	43.94843	23.90100	1323.61389	-154.80656	24.49322	1371.75757	-74.45475	-88.76794	1283.02576	-52.68553	126.26670	1291.28259	-129.29955	-161.62546	1277.98157	-99.27117	221.31996	1294.65332	-206.51659	-57.93860	1293.55713	-198.88005	124.43456	1297.19507	-250.51727	-40.32955	1210.88879	-109.76047	-216.55194	1137.19751	-147.71559	-237.20831	977.86035	-175.35361	-165.61719	963.16266	-71.55470	-234.13101	902.24292	-102.08978	-259.76315	817.91602	-33.93110	-218.20149	769.75427	-40.44846	-259.52625	738.04230	-10.86643	-223.17278	720.14087	2.44235	-205.75517	686.75726	12.05951	-194.13972	647.14807	-21.01814	-273.80176	661.92535	-20.59765	-254.65709	613.05908	-30.20564	-236.62639	577.85217	-121.10429	286.99316	1154.01440	-173.76723	303.00919	1011.08429	-195.97429	224.92451	1001.14618	-87.95592	286.54272	946.76971	-96.64463	327.37967	856.98956	-44.78228	270.89661	814.19189	-34.85050	320.14148	790.52094	-15.02759	278.02484	779.88647	0.11267	255.17645	745.04919	7.64558	251.56642	691.17108	-2.88335	322.27335	709.63470	5.45191	318.04431	670.69025	6.00195	301.64371	628.62701	-258.02271	25.33053	902.22351	-63.27776	-124.61641	970.25696	-78.50427	194.78833	954.24152	-27.05032	-145.17482	583.20959	51.27423	-65.01308	508.20963	10.28224	-100.15659	451.65051	10.52257	12.19056	450.07532	16.72806	-43.94053	278.58121	-52.88378	-54.75911	63.25825	-35.65991	34.83013	84.16279	-109.74371	1.51625	39.03699	89.82854	-31.58832	43.78940	33.70836	11.82044	67.88991	-55.89859	240.22768	580.29443	-37.08640	226.87045	435.35040	-7.47732	110.15567	412.25430	-153.53381	158.63326	271.86935	-328.55347	166.94048	171.15401	-300.87094	80.06375	176.17979	-382.26364	116.65047	196.28578	-255.55721	126.34752	50.06015	-268.91660	95.26394	100.21053																																																																																																																															
126	1.042	-24.07736	43.13178	1563.78369	78.74046	38.15045	1464.27356	-134.88498	41.02286	1482.13086	48.83624	22.48129	1323.90381	-149.47096	23.66733	1371.34521	-69.94299	-89.77055	1282.96716	-47.86074	125.38099	1291.66675	-123.79672	-162.75052	1278.44885	-93.90410	220.21272	1294.52502	-201.65874	-58.44865	1294.03967	-193.67847	123.17813	1298.08972	-245.63974	-41.12019	1211.34875	-103.91504	-218.08893	1138.12659	-140.28806	-238.76517	978.23108	-168.51611	-168.23637	962.55756	-64.33258	-236.01917	902.75885	-92.93418	-261.17770	818.54138	-26.77103	-220.42827	771.02173	-31.21760	-260.91263	738.36920	-1.04806	-223.74632	720.64038	11.39390	-206.90857	688.10083	21.81768	-195.95964	648.42993	-11.31100	-275.66251	663.44189	-10.41499	-256.36795	613.91632	-20.04000	-238.54666	578.63708	-116.79972	286.63516	1154.09558	-169.60049	301.51666	1011.10028	-191.12886	223.78384	1001.21277	-82.45568	285.69388	946.68127	-92.22252	325.41925	856.81726	-39.93055	270.46494	813.95782	-30.34046	319.43585	791.29388	-10.10404	276.95212	780.30225	6.11708	255.17387	745.24915	10.28743	252.57518	690.35443	3.02052	322.43942	709.93768	10.55590	318.09418	671.93549	11.76882	300.93149	629.71802	-253.90288	24.74139	902.76520	-57.57200	-125.30144	970.58679	-73.43166	195.30066	953.95416	-24.57659	-144.86627	582.70715	53.20624	-66.23623	507.31827	11.55614	-100.64626	451.38623	12.88321	11.64461	449.47403	17.70553	-44.15685	278.60239	-53.01068	-54.99184	62.96435	-35.53596	34.85248	84.28078	-109.87580	1.50441	38.87398	89.83410	-32.08870	43.70090	33.66003	11.70705	67.81456	-46.48433	239.55867	581.33722	-25.98182	224.23032	435.77512	2.11828	106.22961	414.70148	-140.47012	158.53848	273.15628	-315.47617	167.42911	171.57097	-289.24384	80.22095	177.60999	-370.48947	117.43932	196.94153	-241.56125	126.40273	51.68756	-256.03357	94.49960	101.58235																																																																																																																															
127	1.050	-18.84761	43.20105	1564.09094	83.02985	37.02808	1464.59448	-129.90585	39.95709	1482.15369	54.37364	22.76906	1323.98853	-144.94243	23.02435	1371.67114	-64.13002	-90.45906	1283.47156	-43.96360	123.50815	1292.25366	-118.53653	-163.78386	1277.88184	-89.20580	219.86610	1295.06311	-196.16374	-60.17403	1294.54553	-188.87791	121.81727	1297.50183	-240.89384	-42.97179	1212.42920	-98.97771	-218.93140	1137.62891	-133.61578	-240.91151	978.13562	-162.22385	-169.98523	962.73541	-56.40707	-236.39973	903.79663	-84.90225	-262.45346	818.66327	-18.41883	-221.03244	772.22101	-22.28691	-262.14996	739.36835	8.24266	-225.53825	721.95740	20.93708	-208.05661	689.28906	31.70640	-197.28186	649.14075	-1.36359	-277.20306	664.65686	0.58693	-257.88788	615.23865	-9.75302	-239.95929	580.08777	-113.10250	285.70898	1153.41113	-165.06340	300.14233	1010.86530	-185.11884	221.16830	1000.94348	-78.76222	283.68286	946.49683	-87.45066	324.09576	857.08948	-32.93669	268.86423	815.63843	-25.22128	318.00372	791.43732	-3.27003	275.50357	780.96332	11.26031	254.27966	744.82336	13.91492	254.23061	689.31702	8.70510	321.93103	710.64288	17.13056	317.60876	673.57605	18.15469	301.30038	630.06604	-248.94223	24.42580	902.54248	-51.98060	-125.94698	970.37054	-69.72890	194.27356	954.28296	-23.98776	-146.66699	582.90686	54.10036	-66.41089	507.14334	13.01000	-100.95969	451.12671	11.61345	10.44602	448.95401	17.91011	-44.87258	278.30966	-53.01068	-54.99184	62.96435	-35.62013	34.74638	84.22949	-110.05154	0.91437	38.95331	89.72330	-32.28468	43.56836	33.21073	11.13080	67.87252	-38.19114	238.32076	582.38788	-14.75072	223.78165	437.24551	13.46616	103.53667	416.90540	-127.91447	157.05267	274.18109	-302.21140	167.46896	172.02771	-277.34766	79.66962	178.13725	-357.59686	117.79832	196.46855	-227.36153	125.80690	54.60447	-243.44507	93.59314	102.87709																																																																																																																															
128	1.058	-14.10808	41.26950	1564.43689	88.29830	36.18363	1465.20703	-125.00011	39.28489	1482.09888	59.12986	22.00033	1323.91699	-139.61694	21.33619	1371.99939	-59.23978	-91.07951	1283.72949	-38.74318	125.11475	1292.68713	-113.60436	-164.01538	1278.05090	-85.41018	218.22728	1295.00647	-191.33781	-60.52121	1294.19641	-184.82130	121.59742	1298.71118	-235.35362	-43.60836	1212.31921	-93.51616	-220.56654	1138.02344	-125.75747	-241.89453	977.88031	-155.13449	-171.22174	962.44537	-48.77753	-237.79733	904.42200	-75.72399	-265.09586	819.44495	-8.51067	-221.49464	773.02606	-14.11591	-263.80905	740.33807	16.78148	-225.67035	723.84082	30.00825	-209.71228	691.32050	41.15799	-198.39592	651.26233	8.09089	-277.93765	665.91058	10.26541	-259.75244	616.62018	0.92862	-241.38562	580.75983	-108.66678	283.85898	1153.27832	-160.52402	298.51794	1010.35431	-180.09386	220.82439	1000.55450	-73.53414	282.60870	946.36359	-82.37173	324.22726	857.65271	-27.15573	267.52377	815.47125	-20.29777	317.41708	792.21069	1.51215	274.08417	781.44135	16.78805	254.32655	744.94250	19.24030	254.16008	689.38757	14.09907	321.58624	711.41400	22.62652	317.93628	673.66058	23.67646	302.23193	630.87421	-244.42023	23.93497	902.45660	-48.54388	-126.74854	970.39734	-65.03815	193.43542	953.94470	-21.16491	-148.69498	582.81097	56.47375	-66.63178	506.54034	14.88501	-101.58739	450.69101	15.56034	10.27012	448.97296	18.75323	-44.68975	278.10803	-53.10272	-55.12823	62.99651	-35.71549	34.45113	84.31182	-110.22665	0.73108	38.97805	89.70422	-32.47764	43.44537	33.11075	10.96532	67.59926	-29.00342	237.23135	582.72845	-2.45499	223.62894	439.33804	23.34125	101.23643	418.84268	-115.06310	154.31651	275.07291	-288.41425	166.35782	171.16200	-263.98727	79.11398	177.02530	-344.99524	117.62308	195.13548	-211.36584	124.27082	54.13741	-228.02853	93.34071	103.41579																																																																																																																															
